# xmcd
#
# Track frame offsets: 
#        183
#        18573
#        38548
#        61008
#
# Disc length: 1158 seconds
#
# Revision: 1
# Processed by: cddbd v1.5.2PL0 Copyright (c) Steve Scherf et al.
# Submitted via: ExactAudioCopy v0.99pb3
#
DISCID=24048404
DTITLE=D'Angelo - Brown Sugar
DYEAR=1995
DGENRE=R&B
TTITLE0=Brown Sugar (Radio Version)
TTITLE1=Brown Sugar (Dollar Bag Mix)
TTITLE2=Brown Sugar (Soul Inside 808 Mix)
TTITLE3=When We Get By
EXTD=
EXTT0=
EXTT1=
EXTT2=
EXTT3=
PLAYORDER=
